<!--?xml version="1.0" encoding="utf-8"?-->
<!-- Generator: Adobe Illustrator 18.1.1, SVG Export Plug-In . SVG Version: 6.00 Build 0)  -->

<svg version="1.1" id="_x32_" xmlns="http://www.w3.org/2000/svg" xmlns:xlink="http://www.w3.org/1999/xlink" x="0px" y="0px" viewBox="0 0 512 512" style="width: 256px; height: 256px; opacity: 1;" xml:space="preserve">
<style type="text/css">
	.st0{fill:#4B4B4B;}
</style>
<g>
	<path class="st0" d="M58.431,384.739h18.756c29.418,0,53.27-23.852,53.27-53.27V206.638c0-29.418-23.852-53.27-53.27-53.27H58.431
		c-29.418,0-53.269,23.852-53.269,53.27v124.831C5.161,360.887,29.012,384.739,58.431,384.739z" style="fill: rgb(75, 75, 75);"></path>
	<path class="st0" d="M453.526,172.682V89.007L364.501,0h-5.559H156.405v171.442v24.008v26.849v87.259v21.91
		c0,44.181-35.938,80.119-80.119,80.119H57.53c-20.023,0-38.306-7.429-52.369-19.621v54.074c0,36.428,29.532,65.96,65.96,65.96
		h369.758c36.428,0,65.96-29.532,65.96-65.96V237.402C506.839,205.309,483.896,178.582,453.526,172.682z M183.254,26.849h170.13
		l1.373,1.372v71.065h71.081l0.84,0.838v71.318H183.254V26.849z M235.037,430.387c-9.605,0-17.393-7.788-17.393-17.392
		s7.788-17.401,17.393-17.401c9.606,0,17.401,7.796,17.401,17.401S244.643,430.387,235.037,430.387z M235.037,373.692
		c-9.605,0-17.393-7.787-17.393-17.393c0-9.605,7.788-17.401,17.393-17.401c9.606,0,17.401,7.796,17.401,17.401
		C252.438,365.904,244.643,373.692,235.037,373.692z M235.037,317.013c-9.605,0-17.393-7.787-17.393-17.392
		c0-9.605,7.788-17.401,17.393-17.401c9.606,0,17.401,7.796,17.401,17.401C252.438,309.226,244.643,317.013,235.037,317.013z
		 M324.543,430.387c-9.606,0-17.393-7.788-17.393-17.392s7.787-17.401,17.393-17.401c9.605,0,17.401,7.796,17.401,17.401
		S334.147,430.387,324.543,430.387z M324.543,373.692c-9.606,0-17.393-7.787-17.393-17.393c0-9.605,7.787-17.401,17.393-17.401
		c9.605,0,17.401,7.796,17.401,17.401C341.943,365.904,334.147,373.692,324.543,373.692z M324.543,317.013
		c-9.606,0-17.393-7.787-17.393-17.392c0-9.605,7.787-17.401,17.393-17.401c9.605,0,17.401,7.796,17.401,17.401
		C341.943,309.226,334.147,317.013,324.543,317.013z M414.048,430.387c-9.606,0-17.393-7.788-17.393-17.392
		s7.787-17.401,17.393-17.401c9.614,0,17.4,7.796,17.4,17.401S423.662,430.387,414.048,430.387z M414.048,373.692
		c-9.606,0-17.393-7.787-17.393-17.393c0-9.605,7.787-17.401,17.393-17.401c9.614,0,17.4,7.796,17.4,17.401
		C431.449,365.904,423.662,373.692,414.048,373.692z M414.048,317.013c-9.606,0-17.393-7.787-17.393-17.392
		c0-9.605,7.787-17.401,17.393-17.401c9.614,0,17.4,7.796,17.4,17.401C431.449,309.226,423.662,317.013,414.048,317.013z
		 M414.921,255.878H235.929c-9.885,0-17.899-8.014-17.899-17.9c0-9.885,8.014-17.899,17.899-17.899h178.993
		c9.885,0,17.899,8.014,17.899,17.899C432.821,247.863,424.806,255.878,414.921,255.878z" style="fill: rgb(75, 75, 75);"></path>
</g>
</svg>
